<?xml version="1.0" encoding="UTF-8" standalone="no"?>
<svg
   xmlns:dc="http://purl.org/dc/elements/1.1/"
   xmlns:cc="http://creativecommons.org/ns#"
   xmlns:rdf="http://www.w3.org/1999/02/22-rdf-syntax-ns#"
   xmlns:svg="http://www.w3.org/2000/svg"
   xmlns="http://www.w3.org/2000/svg"
   xmlns:sodipodi="http://sodipodi.sourceforge.net/DTD/sodipodi-0.dtd"
   xmlns:inkscape="http://www.inkscape.org/namespaces/inkscape"
   viewBox="0 0 400.704 400.70402"
   height="400.70401"
   width="400.70401"
   xml:space="preserve"
   id="svg2"
   version="1.1"
   sodipodi:docname="logo-white.svg"
   inkscape:version="0.92.3 (2405546, 2018-03-11)"><sodipodi:namedview
     pagecolor="#ffffff"
     bordercolor="#666666"
     borderopacity="1"
     objecttolerance="10"
     gridtolerance="10"
     guidetolerance="10"
     inkscape:pageopacity="0"
     inkscape:pageshadow="2"
     inkscape:window-width="1920"
     inkscape:window-height="1025"
     id="namedview38"
     showgrid="false"
     inkscape:zoom="0.85349782"
     inkscape:cx="200.35201"
     inkscape:cy="115.77334"
     inkscape:window-x="0"
     inkscape:window-y="27"
     inkscape:window-maximized="1"
     inkscape:current-layer="svg2" /><metadata
     id="metadata8"><rdf:RDF><cc:Work
         rdf:about=""><dc:format>image/svg+xml</dc:format><dc:type
           rdf:resource="http://purl.org/dc/dcmitype/StillImage" /><dc:title></dc:title></cc:Work></rdf:RDF></metadata><defs
     id="defs6"><clipPath
       id="clipPath20"
       clipPathUnits="userSpaceOnUse"><path
         id="path18"
         d="M 0,595.276 H 841.89 V 0 H 0 Z"
         inkscape:connector-curvature="0" /></clipPath></defs><g
     transform="matrix(1.3333333,0,0,-1.3333333,-354.86021,627.35357)"
     id="g10"><g
       id="g14"><g
         clip-path="url(#clipPath20)"
         id="g16"><g
           transform="translate(440.0135,327.3933)"
           id="g22"><path
             id="path24"
             style="fill:#ffffff;fill-opacity:1;fill-rule:nonzero;stroke:none"
             d="m 0,0 v -0.743 c -0.024,0.205 -0.009,0.393 0.008,0.582 -0.001,0.052 -0.007,0.106 -0.007,0.158 z"
             inkscape:connector-curvature="0" /></g><g
           transform="translate(440.0135,327.4099)"
           id="g26"><path
             id="path28"
             style="fill:#ffffff;fill-opacity:1;fill-rule:nonzero;stroke:none"
             d="m 0,0 v -0.017 0.004 z"
             inkscape:connector-curvature="0" /></g><g
           transform="translate(505.0985,263.7761)"
           id="g30"><path
             id="path32"
             style="fill:#ffffff;fill-opacity:1;fill-rule:nonzero;stroke:none"
             d="m 0,0 v -0.743 c -0.024,0.205 -0.008,0.393 0.008,0.582 0,0.051 -0.007,0.106 -0.007,0.158 z"
             inkscape:connector-curvature="0" /></g><g
           transform="translate(404.9266,281.9826)"
           id="g34"><path
             id="path36"
             style="fill:#ffffff;fill-opacity:1;fill-rule:nonzero;stroke:none"
             d="m 0,0 c 3.151,0.946 8.123,1.187 8.123,-1.963 0,-5.033 -12.13,-5.348 -15.169,-4.774 C -5.836,-3.38 -3.338,-1.002 0,0 m 36.028,-0.001 c 3.153,0.946 8.124,1.188 8.124,-1.962 0,-5.034 -12.13,-5.349 -15.169,-4.774 1.21,3.357 3.708,5.735 7.045,6.736 m 81.904,-3.088 c -7.75,-0.98 -9.38,2.3 -9.38,7.504 0,3.284 2.412,5.563 6.839,5.563 5.029,0 6.742,-3.072 6.742,-7.04 -0.143,-3.641 8.39,-3.316 8.817,-0.83 1.205,9.122 -4.695,16.784 -15.895,16.784 -7.242,0 -15.592,-4.956 -15.592,-14.881 0,-7.645 3.052,-17.822 18.6,-16.078 5.512,1.034 8.899,-0.551 8.899,-6.872 0,-3.968 -1.914,-8.898 -9.693,-8.898 -5.232,0 -7.453,3.577 -8.104,9.869 -0.407,3.937 -8.66,3.42 -8.985,-0.4 0.026,-2.539 0.644,-5.447 1.89,-8.197 C 95.347,-34.64 91.298,-38.05 88.791,-37.16 84.633,-35.685 109.647,8.577 87.986,8.66 76.108,8.706 70.215,-4.685 63.567,-17.931 c 0,0 1.343,4.774 3.507,18.393 0.624,4.091 -8.027,5.03 -8.809,0.558 -0.67,-3.835 -2.288,-9.945 -3.462,-16.501 -8.301,-4.846 -12.634,-7.898 -18.236,-8.677 -8.749,-1.216 -8.392,6.961 -7.965,9.258 3.944,-0.3 19.131,-1.326 23.643,8.599 C 56.118,3.847 47.282,9.506 38.9,9.497 25.45,10.095 17.806,-3.639 18.456,-15.667 c -8.091,-4.736 -12.39,-7.722 -17.917,-8.49 -8.749,-1.216 -8.393,6.961 -7.967,9.258 3.945,-0.3 19.133,-1.327 23.644,8.598 C 20.09,3.848 11.254,9.506 2.871,9.498 -7.828,9.973 -14.847,1.374 -16.949,-8.216 c -2.406,-1.001 -4.753,-1.342 -7.729,-0.897 0.079,1.491 1.255,10.873 1.255,18.189 0,4.694 -8.399,4.291 -8.898,0.604 -1.744,-16.901 -1.678,-21.345 -3.551,-30.85 l -0.029,-0.24 c -0.476,-2.715 -0.997,-4.862 -1.594,-6.536 -0.223,-0.698 -0.42,-1.19 -0.578,-1.432 l -10e-4,-0.001 c -1.071,-2.281 -2.377,-3.305 -4.069,-3.395 -4.58,-0.245 -1.857,17.877 -1.906,28.648 v 0.171 c -0.018,2.472 -0.187,4.544 -0.632,5.898 -0.84,1.61 -3.745,1.699 -7.178,1.308 -2.607,-0.067 -4.374,-1.309 -7.042,-5.13 -3.112,-4.456 -7.178,-10.422 -7.797,-8.767 -0.576,1.539 2.247,2.173 1.533,13.771 -0.356,2.32 -7.214,1.966 -8.998,-0.174 0.893,-12.312 -9.1,-29.439 3.033,-29.439 3.392,0.176 10.528,9.276 15.523,15.522 1.427,1.961 2.676,3.389 3.391,4.282 0.036,-1.467 -0.237,-3.802 -0.548,-6.577 -32.363,-47.698 -45.094,-24.313 -30.534,33.359 h 16.176 c 2.442,0 4.422,1.979 4.422,4.421 v 0.055 c 0,2.442 -1.98,4.422 -4.422,4.422 h -13.784 c 1.056,3.72 2.212,7.555 3.478,11.509 l 1.071,3.033 c 1.072,3.212 1.39,4.122 2.724,7.228 2.034,4.445 -5.374,8.066 -7.789,3.237 -1.784,-3.567 -3.389,-7.492 -4.817,-11.419 l -1.07,-3.033 c -1.227,-3.491 -2.368,-7.02 -3.416,-10.555 h -17.076 c -2.441,0 -4.421,-1.98 -4.421,-4.422 v -0.055 c 0,-2.442 1.98,-4.421 4.421,-4.421 h 14.64 c -10.181,-40.529 -7.115,-78.442 20.917,-66.387 5.704,2.453 12.865,9.908 18.884,17.272 0.71,-6.82 3.408,-12.478 10.956,-12.638 8.615,0 11.738,9.28 14.141,17.09 1.448,5.926 1.403,6.758 1.586,7.889 3.354,-0.566 6.338,-0.615 9.169,0.066 0.784,-8.597 5.908,-16.089 16.34,-16.463 6.162,-0.221 13.145,2.339 21.872,8.617 2.509,-4.877 7.126,-8.366 14.157,-8.618 5.86,-0.21 12.167,2.398 18.656,6.654 -0.113,-2.846 -0.006,-5.59 0.465,-8.067 0.536,-2.854 6.29,-2.673 8.05,-1.064 11.804,13.832 18.127,35.313 24.194,35.313 6.422,-0.358 -18.483,-47.905 0.608,-47.725 5.717,0.089 13.145,7.033 19.937,14.982 2.629,-2.258 6.083,-3.754 10.452,-3.754 11.876,0 18.762,9.902 18.762,17.436 0,11.717 -8.194,17.879 -18.053,16.21"
             inkscape:connector-curvature="0" /></g><g
           transform="translate(505.0985,263.7927)"
           id="g38"><path
             id="path40"
             style="fill:#ffffff;fill-opacity:1;fill-rule:nonzero;stroke:none"
             d="m 0,0 v -0.017 c 0,0.001 0.001,0.002 0.001,0.003 C 0.001,-0.009 0,-0.004 0,0"
             inkscape:connector-curvature="0" /></g><g
           transform="translate(491.1415,328.3635)"
           id="g42"><path
             id="path44"
             style="fill:#ffffff;fill-opacity:1;fill-rule:nonzero;stroke:none"
             d="m 0,0 v 0.001 c 0.363,0.809 0.841,1.524 1.418,2.127 0.585,0.613 1.267,1.171 2.024,1.66 0.65,0.415 1.279,0.81 1.906,1.193 1.733,-2.188 3.602,-4.356 5.562,-6.455 1.938,-2.067 3.986,-4.043 6.099,-5.883 -0.655,-0.543 -1.318,-1.038 -1.971,-1.481 -0.868,-0.59 -1.722,-1.08 -2.534,-1.456 -0.569,-0.262 -1.197,-0.463 -1.865,-0.597 -1.877,-0.377 -3.704,-0.217 -5.444,0.404 -1.124,0.401 -2.119,0.979 -2.962,1.719 -0.843,0.738 -1.527,1.622 -2.029,2.625 -0.493,0.988 -0.741,2.097 -0.741,3.296 0,1.097 0.181,2.056 0.537,2.847 m 5.758,26.757 c 0.572,0.709 1.465,1.051 2.731,1.051 1.165,0 2.261,-0.334 3.256,-0.995 0.918,-0.611 1.345,-1.369 1.345,-2.387 0,-2.1 -0.604,-3.82 -1.795,-5.115 -1.097,-1.194 -2.287,-2.233 -3.552,-3.101 -0.66,0.967 -1.239,1.922 -1.725,2.85 -0.56,1.062 -0.899,2.051 -1.011,2.977 -0.056,0.345 -0.097,0.665 -0.121,0.971 -0.024,0.314 -0.036,0.637 -0.036,0.984 0,1.083 0.304,2.013 0.908,2.765 m -9.441,-41.818 c 1.625,-1.507 3.538,-2.686 5.684,-3.502 2.137,-0.812 4.378,-1.226 6.663,-1.226 2.826,0 5.558,0.642 8.121,1.907 2.367,1.169 4.771,2.876 7.153,5.083 1.779,-1.204 3.605,-2.27 5.439,-3.172 2.008,-0.992 4.107,-1.826 6.227,-2.477 0.261,-0.084 0.587,-0.123 1.027,-0.123 1.429,0 2.565,0.414 3.376,1.228 0.806,0.801 1.231,1.79 1.231,2.859 0,1.584 -0.772,2.933 -2.295,4.005 l -0.309,0.149 c -1.733,0.506 -3.402,1.144 -4.961,1.897 -1.319,0.634 -2.611,1.346 -3.853,2.118 0.871,1.042 1.79,2.206 2.744,3.472 1.122,1.475 2.212,3.008 3.249,4.556 1.003,1.516 1.838,2.965 2.484,4.31 0.695,1.46 1.034,2.594 1.034,3.464 0,1.264 -0.436,2.306 -1.3,3.098 -1.46,1.343 -3.302,1.541 -5.049,0.538 C 32.257,12.708 31.618,12.026 31.083,11.087 30.044,9.241 28.781,7.167 27.329,4.921 26.015,2.886 24.558,0.865 22.991,-1.099 22.197,-0.373 21.413,0.39 20.65,1.176 19.712,2.141 18.741,3.186 17.772,4.269 l -4.559,5.244 c 1.048,0.592 2.019,1.309 2.896,2.137 1.098,1.038 2.088,2.225 2.942,3.532 0.848,1.305 1.507,2.732 1.96,4.242 0.456,1.519 0.686,3.056 0.686,4.568 0,1.962 -0.361,3.725 -1.072,5.242 -0.707,1.506 -1.677,2.817 -2.884,3.901 -1.202,1.075 -2.589,1.902 -4.121,2.455 -2.895,1.042 -6.057,1.148 -9.294,0.047 -1.526,-0.52 -2.938,-1.296 -4.192,-2.304 -1.258,-1.012 -2.3,-2.241 -3.1,-3.656 -0.817,-1.448 -1.232,-3.126 -1.232,-4.989 0,-2.417 0.536,-4.834 1.591,-7.185 C -1.721,15.521 -0.754,13.7 0.272,12.076 -0.841,11.363 -1.906,10.599 -2.901,9.797 -4.129,8.81 -5.214,7.697 -6.125,6.484 -7.033,5.267 -7.772,3.884 -8.321,2.374 L -8.322,2.369 c -0.546,-1.531 -0.824,-3.286 -0.824,-5.216 0,-2.482 0.509,-4.789 1.512,-6.854 0.99,-2.047 2.32,-3.851 3.951,-5.36"
             inkscape:connector-curvature="0" /></g><g
           transform="translate(386.5262,336.1154)"
           id="g46"><path
             id="path48"
             style="fill:#ffffff;fill-opacity:1;fill-rule:nonzero;stroke:none"
             d="M 0,0 C 2.413,-4.859 6.893,-10.513 14.681,-12.404 12.394,-18.347 8.685,-18.363 6.688,-18.353 -2.152,-17.685 -4.538,-6.55 0,0 m 12.591,13.77 c 5.949,-0.988 5.531,-9.401 3.905,-17.321 -4.297,1.048 -7.498,3.676 -9.077,7.776 1.326,1.919 1.103,5.526 -1.002,6.022 0,0 0.122,4.527 6.174,3.523 m -61.436,20.995 h 14.639 c -10.181,-40.528 -7.114,-78.441 20.917,-66.386 3.013,1.295 6.435,3.998 9.879,7.334 2.616,-1.84 6.023,-2.963 10.342,-2.963 8.492,0 14.385,6.337 17.438,14.479 2.734,0.371 5.738,1.13 9.022,2.342 1.55,-17.991 9.393,-28.314 25.953,-21.192 2.218,0.954 4.658,2.67 7.165,4.837 1.247,-0.299 2.586,-0.466 4.027,-0.466 11.877,0 18.764,9.901 18.764,17.436 0,11.717 -8.195,17.879 -18.054,16.21 -7.751,-0.98 -9.38,2.299 -9.38,7.503 0,3.285 2.412,5.563 6.838,5.563 5.03,0 6.743,-3.072 6.743,-7.04 -0.142,-3.641 8.391,-3.316 8.818,-0.83 1.205,9.123 -4.697,16.784 -15.896,16.784 -7.243,0 -15.593,-4.956 -15.593,-14.881 0,-7.645 3.052,-17.821 18.602,-16.078 5.511,1.035 8.897,-0.551 8.897,-6.872 0,-3.967 -1.914,-8.898 -9.693,-8.898 -5.23,0 -7.452,3.578 -8.103,9.869 -0.407,3.937 -8.66,3.42 -8.985,-0.399 0.043,-4.128 1.626,-9.242 4.985,-13.029 C 41.983,-32.716 37.311,-8.727 48.291,34.765 h 16.177 c 2.441,0 4.421,1.98 4.421,4.422 v 0.055 c 0,2.442 -1.98,4.422 -4.421,4.422 H 50.683 c 1.056,3.72 2.212,7.554 3.478,11.509 l 1.07,3.033 c 1.073,3.212 1.391,4.122 2.725,7.228 2.034,4.444 -5.374,8.066 -7.789,3.237 C 48.383,65.103 46.778,61.179 45.35,57.252 L 44.28,54.219 C 43.053,50.728 41.912,47.199 40.864,43.664 H 23.788 c -2.441,0 -4.421,-1.98 -4.421,-4.422 v -0.055 c 0,-2.442 1.98,-4.422 4.421,-4.422 h 14.64 C 35.205,21.937 33.315,9.377 33.119,-1.425 30.826,-2.353 28.607,-3.03 26.49,-3.469 27.32,4.21 25.953,11.999 22.277,17 19.956,20.389 16.388,22.708 12.105,22.887 4.969,23.243 -2.733,18.779 -2.541,8.159 l 0.092,0.059 c -6.913,-5.164 -9.806,-17.097 -6.279,-25.698 -20.803,-19.924 -27.719,4.31 -15.616,52.245 h 16.178 c 2.441,0 4.421,1.98 4.421,4.422 v 0.055 c 0,2.442 -1.98,4.422 -4.421,4.422 h -13.79 c 1.057,3.718 2.218,7.557 3.483,11.509 l 1.071,3.033 c 1.072,3.212 1.39,4.122 2.724,7.228 2.034,4.444 -5.374,8.066 -7.788,3.237 -1.785,-3.568 -3.389,-7.492 -4.818,-11.419 l -1.07,-3.033 c -1.227,-3.491 -2.368,-7.02 -3.416,-10.555 h -17.075 c -2.442,0 -4.422,-1.98 -4.422,-4.422 v -0.055 c 0,-2.442 1.98,-4.422 4.422,-4.422"
             inkscape:connector-curvature="0" /></g><g
           transform="translate(317.2811,351.7839)"
           id="g50"><path
             id="path52"
             style="fill:#7fd8d0;fill-opacity:1;fill-rule:nonzero;stroke:none"
             d="M 0,0 C -2.657,0.222 -4.631,2.555 -4.409,5.212 -4.187,7.869 -1.854,9.843 0.803,9.621 3.46,9.399 5.434,7.066 5.212,4.409 4.99,1.752 2.657,-0.222 0,0"
             inkscape:connector-curvature="0" /></g><g
           transform="translate(270.5712,306.1926)"
           id="g54"><path
             id="path56"
             style="fill:#f59bb5;fill-opacity:1;fill-rule:nonzero;stroke:none"
             d="M 0,0 C -2.657,0.222 -4.631,2.555 -4.409,5.212 -4.187,7.869 -1.854,9.843 0.803,9.621 3.46,9.399 5.434,7.065 5.212,4.409 4.99,1.752 2.656,-0.222 0,0"
             inkscape:connector-curvature="0" /></g><g
           transform="translate(275.58,341.2805)"
           id="g58"><path
             id="path60"
             style="fill:#f3e84d;fill-opacity:1;fill-rule:nonzero;stroke:none"
             d="m 0,0 c -2.656,0.222 -4.629,2.555 -4.407,5.21 0.221,2.657 2.553,4.63 5.21,4.409 C 3.459,9.397 5.433,7.064 5.211,4.408 4.989,1.752 2.656,-0.222 0,0"
             inkscape:connector-curvature="0" /></g><g
           transform="translate(300.4052,332.3152)"
           id="g62"><path
             id="path64"
             style="fill:#fcb894;fill-opacity:1;fill-rule:nonzero;stroke:none"
             d="m 0,0 c -3.757,0.313 -6.548,3.613 -6.234,7.37 0.313,3.757 3.613,6.548 7.37,6.234 C 4.893,13.291 7.684,9.991 7.37,6.234 7.057,2.478 3.757,-0.313 0,0"
             inkscape:connector-curvature="0" /></g><g
           transform="translate(557.1151,288.8264)"
           id="g66"><path
             id="path68"
             style="fill:#7fd8d0;fill-opacity:1;fill-rule:nonzero;stroke:none"
             d="M 0,0 C 0.712,2.591 3.39,4.114 5.98,3.402 8.571,2.69 10.095,0.013 9.383,-2.578 8.671,-5.169 5.993,-6.692 3.402,-5.98 0.812,-5.268 -0.712,-2.591 0,0"
             inkscape:connector-curvature="0" /></g><g
           transform="translate(554.4354,332.0842)"
           id="g70"><path
             id="path72"
             style="fill:#f59bb5;fill-opacity:1;fill-rule:nonzero;stroke:none"
             d="M 0,0 C 0.712,2.59 3.389,4.113 5.979,3.401 8.569,2.689 10.092,0.013 9.38,-2.577 8.668,-5.167 5.992,-6.69 3.401,-5.979 0.812,-5.267 -0.712,-2.59 0,0"
             inkscape:connector-curvature="0" /></g><g
           transform="translate(540.955,309.1516)"
           id="g74"><path
             id="path76"
             style="fill:#f3e84d;fill-opacity:1;fill-rule:nonzero;stroke:none"
             d="M 0,0 C 1.007,3.664 4.792,5.817 8.456,4.811 12.12,3.804 14.273,0.018 13.267,-3.646 12.261,-7.309 8.475,-9.463 4.811,-8.457 1.147,-7.45 -1.007,-3.664 0,0"
             inkscape:connector-curvature="0" /></g></g></g></g></svg>